<svg preserveAspectRatio="none" overflow="visible" style="display: block;" width="35" height="35" viewBox="0 0 35 35" fill="none" xmlns="http://www.w3.org/2000/svg">
<g id="chat-bot" opacity="0.7">
<path id="Vector" d="M16.043 11.6665H18.9596C23.0844 11.6665 25.1468 11.6665 26.4282 12.9479C27.7096 14.2293 27.7096 16.2918 27.7096 20.4165C27.7096 24.5413 27.7096 26.6036 26.4282 27.8851C25.1468 29.1665 23.0844 29.1665 18.9596 29.1665H17.5013C17.5013 29.1665 16.7721 32.0832 11.668 32.0832C11.668 32.0832 13.1263 30.6121 13.1263 29.1413C10.8609 29.073 9.50961 28.8203 8.57438 27.8851C7.29297 26.6036 7.29297 24.5413 7.29297 20.4165C7.29297 16.2918 7.29297 14.2293 8.57438 12.9479C9.85579 11.6665 11.9182 11.6665 16.043 11.6665Z" stroke="#2F99B3" stroke-width="2.1" stroke-linejoin="round"/>
<path id="Vector_2" d="M27.707 16.771H28.4362C29.7992 16.771 30.4806 16.771 30.9883 17.0641C31.3208 17.256 31.597 17.5322 31.7889 17.8647C32.082 18.3724 32.082 19.0539 32.082 20.4168C32.082 21.7798 32.082 22.4613 31.7889 22.9689C31.597 23.3014 31.3208 23.5776 30.9883 23.7695C30.4806 24.0627 29.7992 24.0627 28.4362 24.0627H27.707" stroke="#2F99B3" stroke-width="2.1" stroke-linejoin="round"/>
<path id="Vector_3" d="M7.29297 16.771H6.5638C5.20081 16.771 4.51934 16.771 4.01172 17.0641C3.67918 17.256 3.40302 17.5322 3.21104 17.8647C2.91797 18.3724 2.91797 19.0539 2.91797 20.4168C2.91797 21.7798 2.91797 22.4613 3.21104 22.9689C3.40302 23.3014 3.67918 23.5776 4.01172 23.7695C4.51934 24.0627 5.20081 24.0627 6.5638 24.0627H7.29297" stroke="#2F99B3" stroke-width="2.1" stroke-linejoin="round"/>
<path id="Vector_4" d="M19.6875 5.10417C19.6875 6.31229 18.7081 7.29167 17.5 7.29167C16.2919 7.29167 15.3125 6.31229 15.3125 5.10417C15.3125 3.89604 16.2919 2.91667 17.5 2.91667C18.7081 2.91667 19.6875 3.89604 19.6875 5.10417Z" stroke="#2F99B3" stroke-width="2.1"/>
<path id="Vector_5" d="M17.5 7.29167V11.6667" stroke="#2F99B3" stroke-width="2.1" stroke-linecap="round" stroke-linejoin="round"/>
<path id="Vector_6" d="M13.125 17.5V18.9583M21.875 17.5V18.9583" stroke="#2F99B3" stroke-width="2.1" stroke-linecap="round" stroke-linejoin="round"/>
<path id="Vector_7" d="M14.582 24.0625C14.582 24.0625 15.5543 24.7917 17.4987 24.7917C19.4431 24.7917 20.4154 24.0625 20.4154 24.0625" stroke="#2F99B3" stroke-width="2.1" stroke-linecap="round"/>
</g>
</svg>
